<svg width="24" height="34" viewBox="0 0 24 34" fill="none" xmlns="http://www.w3.org/2000/svg">
<path fill-rule="evenodd" clip-rule="evenodd" d="M13.235 15.2643L13.3519 15.0473C14.5369 15.7371 17.2807 17.3939 18.7761 18.5021C18.7649 19.4367 18.6659 21.9001 18.3588 24.2768C18.2197 25.4618 17.6478 28.3992 16.4729 30.669C17.146 29.7733 18.6492 27.2809 19.2768 24.4771C19.4937 23.6815 19.9878 21.2926 20.2281 18.1015C18.9485 17.3616 15.8086 15.6615 13.4854 14.7802L13.6523 14.4298C15.3713 14.9026 19.3869 16.1021 21.6968 17.1168C21.6467 18.3185 21.3497 21.4729 20.5619 24.4771C20.1549 26.0292 19.0331 30.0248 15.8554 33.8568C15.8991 33.8115 15.9524 33.7578 16.015 33.6949C16.6908 33.0138 18.4436 31.2476 20.9124 27.3978C22.1474 25.1113 22.9652 22.4743 24 16.1989C21.5633 15.4145 18.242 14.5466 13.7524 14.0793L13.886 13.8122C15.5549 13.7232 19.4537 13.662 21.6968 14.1293C21.9527 12.4214 21.8604 8.45813 19.8442 6.26842C20.2893 7.48678 21.1193 10.5076 20.4784 12.8442C18.8484 12.8331 15.2579 12.901 13.936 13.2615L13.7191 12.9777C14.6982 12.3936 16.9335 11.1752 18.0417 10.975C18.0453 10.9483 18.049 10.9214 18.0527 10.8944C18.3709 8.55361 18.8705 4.87853 15.4882 0.14325C16.306 1.82892 17.6278 5.89791 16.7733 10.1572L13.452 12.5772L13.2017 12.2267L14.2197 11.1752C14.0362 10.8748 13.4887 10.2039 12.7677 9.9235C13.1127 10.3352 13.5789 11.2453 12.6843 11.5925H11.3658C10.9819 11.4923 10.4278 11.0184 11.2823 9.9235C10.9318 10.0848 10.1608 10.5611 9.88039 11.1752L10.6481 12.0932L10.4812 12.427L7.27677 10.1739C6.89847 8.54381 6.58915 4.25897 8.3783 0.159939C8.23435 0.424998 8.09579 0.6777 7.96276 0.920326C6.15241 4.22203 5.36519 5.65777 5.9249 10.975C6.55355 11.1085 8.2548 11.6893 10.0306 12.9444L9.93046 13.1613C8.40612 13.0167 4.98693 12.7574 3.50487 12.8776C3.24896 11.6871 3.01418 8.69847 4.12239 6.26842C2.36996 8.73852 2.01947 10.541 2.31989 14.1794C3.58275 13.9346 6.87288 13.5185 9.93046 13.8122L10.0306 14.0793C7.78303 14.363 2.63032 15.1841 0 16.1989C0.0736494 16.5933 0.145146 16.9801 0.215234 17.3592C0.859871 20.8463 1.38531 23.6886 2.36996 25.9291C4.03905 29.1389 5.46426 30.7879 7.198 32.7938C7.49261 33.1347 7.79613 33.4859 8.11127 33.8568C5.4242 30.1349 2.64033 25.4618 2.31989 17.1168C4.08901 16.4103 8.17803 14.8837 10.3811 14.4298L10.5313 14.7802C8.72879 15.5424 4.84006 17.267 3.83867 18.0681C3.84972 18.2166 3.86059 18.3657 3.87152 18.5155C4.12469 21.9857 4.40451 25.8212 7.46036 30.669C6.50904 28.5828 5.43422 26.2061 5.20723 18.5021C6.52573 17.6175 9.45981 15.6882 10.6481 15.0473L10.7816 15.2643C10.1808 15.6481 8.78554 16.6128 8.01113 17.4006C7.96106 17.7232 7.89096 18.926 8.01113 21.1558C8.58415 22.1961 10.1841 24.447 12 25.128C12.9291 24.7497 15.0175 23.4256 15.9388 21.1558C16.0111 20.6217 16.1391 19.1296 16.0723 17.4339C15.516 16.9277 14.1697 15.785 13.235 15.2643ZM10.2309 16.1321L10.224 16.1379L10.2239 16.1379C9.86978 16.4302 9.06685 17.0929 8.69546 17.5174C8.70102 18.2128 8.7522 19.8006 8.84567 20.5216C9.26291 21.3449 10.5213 23.1619 12.0167 23.8428C12.7845 23.4423 14.5669 22.1638 15.1544 20.5216C15.1575 20.4895 15.1608 20.4544 15.1644 20.4167C15.2202 19.8327 15.338 18.6 15.338 17.5841C15.0098 17.2337 14.2498 16.4526 13.8359 16.1321C14.0418 16.3992 14.5269 17.0634 14.8206 17.5841C14.8485 17.9124 14.8302 18.7254 14.7205 19.42C14.6204 20.0542 13.7692 21.8067 12.0167 22.541C11.2323 22.2176 9.62341 21.1405 9.32967 19.42C9.2796 19.1864 9.18948 18.5421 9.22953 17.6342C9.40582 17.3639 9.71452 16.9033 9.96332 16.532C10.0678 16.376 10.1618 16.2358 10.2309 16.1321Z" fill="white"/>
</svg>
